<?xml version="1.0" encoding="utf-8"?>
<!-- Generator: Adobe Illustrator 19.2.1, SVG Export Plug-In . SVG Version: 6.00 Build 0)  -->
<svg version="1.1" id="Capa_1" xmlns="http://www.w3.org/2000/svg" xmlns:xlink="http://www.w3.org/1999/xlink" x="0px" y="0px"
	 viewBox="0 0 300 300" style="enable-background:new 0 0 300 300;" xml:space="preserve">
<style type="text/css">
	.st0{opacity:0.53;}
	.st1{fill:#57C1E8;}
	.st2{fill:#1E252B;}
	.st3{fill:none;stroke:#57C1E8;stroke-miterlimit:10;}
	.st4{opacity:0.2;fill:#57C1E8;}
</style>
<g>
	<g class="st0">
		<path class="st1" d="M286.1,137.3c-5-26.8-24.1-55.7-53.3-71c6-9.4,3.6-18.6,1.3-27.6c-0.9-3.4-1.8-6.9-2.2-10.4
			c-0.3-2.2-1.1-8.2-5.6-9c-4.1-0.7-7.1,3.8-8.5,6.6l-13.7,24.9c0.4-1.9,0.9-3.9,1.3-6c1.2-6.3,2.2-14.9-3.4-17.7
			c-6.9-3.4-18.8,5.4-41.2,30.5c-8.2,9.2-11.8,18.4-10.6,27.3c0.4,2.9,1.3,5.5,2.4,7.8c-23.2,27.9-30.3,30.2-41.1,33.7
			c-19.4,6.3-34.5-4.4-39.4-12.7c-3.8-6.3-9-13.5-16-13.3c-4.8,0.2-8.8,3.8-12.4,10.9c-6.2,12.4,0.4,25.4,5.5,32.7
			c-6.7,3.6-16.5,11.7-18,29.3c-1,11.9-5.5,19.1-10.3,26.7c-5,8-10.2,16.3-10.2,29.3c0,8.8,10.4,17.6,20.2,21.4
			c4,1.6,7.8,2.3,11.2,2.3c5.3,0,9.7-1.8,12.9-5.3c7.5-8.2,5.7-13.7,4.2-18.6c-0.9-3-1.9-6.1-1.1-10.7c1-5.4,5.1-10.3,8.7-13.6
			c2.9,2.8,10.5,9.1,21.7,11.4c0,0.3-0.1,0.6-0.1,1c-1.1,19.4-1.7,40.9,4,50.8c0.4,0.6,9,14.8,32.3,14.8c1.1,0,2.3,0,3.5-0.1
			c8.9-0.5,14.4-3,16.6-7.7c3.4-6.9-2.3-15.1-4.8-18.6c-0.2-0.3-0.4-0.5-0.5-0.7l-0.4-0.6c-1.9-2.9-5.1-7.5,5.4-28.1
			c0.5-0.8,1.1-1.8,1.7-2.8c4-0.8,13.5-3,22.1-7.7c1.3,3.9,3.2,9.6,4,12.1l0.2,0.6c1.8,5.5,3.8,8.9,16.7,11.1
			c2.4,0.4,9.5,1.5,17.1,1.5c8,0,16.6-1.2,20.9-5.7c2.4-2.5,3.3-5.8,2.5-9.5c-1.2-5.9-4-9.5-6.6-12.9c-4.1-5.3-8.6-11.1-9.6-28.3
			c8,4.2,18.1,7,30.8,7c6.4,0,13.5-0.7,21.3-2.3l0.5-0.1l0.5-0.3C283.3,180.6,290.5,160.9,286.1,137.3z"/>
	</g>
	<g>
		<path class="st2" d="M286.1,137.3c-5-26.8-24.1-55.7-53.3-71c6-9.4,3.6-18.6,1.3-27.6c-0.9-3.4-1.8-6.9-2.2-10.4
			c-0.3-2.2-1.1-8.2-5.6-9c-4.1-0.7-7.1,3.8-8.5,6.6l-13.7,24.9c0.4-1.9,0.9-3.9,1.3-6c1.2-6.3,2.2-14.9-3.4-17.7
			c-6.9-3.4-18.8,5.4-41.2,30.5c-8.2,9.2-11.8,18.4-10.6,27.3c0.4,2.9,1.3,5.5,2.4,7.8c-23.2,27.9-30.3,30.2-41.1,33.7
			c-19.4,6.3-34.5-4.4-39.4-12.7c-3.8-6.3-9-13.5-16-13.3c-4.8,0.2-8.8,3.8-12.4,10.9c-6.2,12.4,0.4,25.4,5.5,32.7
			c-6.7,3.6-16.5,11.7-18,29.3c-1,11.9-5.5,19.1-10.3,26.7c-5,8-10.2,16.3-10.2,29.3c0,8.8,10.4,17.6,20.2,21.4
			c4,1.6,7.8,2.3,11.2,2.3c5.3,0,9.7-1.8,12.9-5.3c7.5-8.2,5.7-13.7,4.2-18.6c-0.9-3-1.9-6.1-1.1-10.7c1-5.4,5.1-10.3,8.7-13.6
			c2.9,2.8,10.5,9.1,21.7,11.4c0,0.3-0.1,0.6-0.1,1c-1.1,19.4-1.7,40.9,4,50.8c0.4,0.6,9,14.8,32.3,14.8c1.1,0,2.3,0,3.5-0.1
			c8.9-0.5,14.4-3,16.6-7.7c3.4-6.9-2.3-15.1-4.8-18.6c-0.2-0.3-0.4-0.5-0.5-0.7l-0.4-0.6c-1.9-2.9-5.1-7.5,5.4-28.1
			c0.5-0.8,1.1-1.8,1.7-2.8c4-0.8,13.5-3,22.1-7.7c1.3,3.9,3.2,9.6,4,12.1l0.2,0.6c1.8,5.5,3.8,8.9,16.7,11.1
			c2.4,0.4,9.5,1.5,17.1,1.5c8,0,16.6-1.2,20.9-5.7c2.4-2.5,3.3-5.8,2.5-9.5c-1.2-5.9-4-9.5-6.6-12.9c-4.1-5.3-8.6-11.1-9.6-28.3
			c8,4.2,18.1,7,30.8,7c6.4,0,13.5-0.7,21.3-2.3l0.5-0.1l0.5-0.3C283.3,180.6,290.5,160.9,286.1,137.3z"/>
	</g>
	<g>
		<path class="st3" d="M286.4,137.4c-5.1-26.8-24.1-55.8-53.4-71.2c6-9.4,3.6-18.7,1.3-27.7c-0.9-3.4-1.8-6.9-2.2-10.5
			c-0.3-2.2-1.1-8.2-5.6-9c-4.2-0.7-7.1,3.8-8.5,6.7l-13.8,24.9c0.4-1.9,0.9-3.9,1.3-6c1.2-6.3,2.2-15-3.4-17.8
			c-6.9-3.4-18.9,5.4-41.3,30.6c-8.2,9.2-11.8,18.4-10.6,27.4c0.4,2.9,1.3,5.5,2.4,7.9c-23.2,27.9-30.4,30.3-41.1,33.8
			c-19.4,6.4-34.5-4.4-39.5-12.7c-3.8-6.3-9.1-13.5-16-13.3c-4.8,0.2-8.8,3.8-12.4,10.9c-6.2,12.5,0.4,25.4,5.5,32.8
			c-6.7,3.6-16.6,11.7-18.1,29.3c-1,11.9-5.5,19.1-10.3,26.8c-5,8-10.2,16.3-10.2,29.4c0,8.8,10.4,17.7,20.2,21.5
			c4,1.6,7.8,2.3,11.3,2.3c5.3,0,9.8-1.8,12.9-5.3c7.5-8.2,5.8-13.7,4.2-18.6c-1-3-1.9-6.1-1.1-10.8c1-5.4,5.1-10.3,8.7-13.6
			c2.9,2.8,10.5,9.1,21.8,11.4c0,0.3-0.1,0.6-0.1,1c-1.1,19.4-1.7,41,4,50.9c0.4,0.6,9,14.8,32.4,14.8c1.1,0,2.3,0,3.5-0.1
			c8.9-0.5,14.4-3,16.7-7.7c3.4-7-2.3-15.2-4.8-18.7c-0.2-0.3-0.4-0.5-0.5-0.7l-0.4-0.6c-2-2.9-5.1-7.5,5.4-28.2
			c0.5-0.8,1.1-1.8,1.7-2.8c4-0.8,13.5-3,22.1-7.7c1.3,3.9,3.2,9.6,4.1,12.1l0.2,0.6c1.8,5.5,3.8,8.9,16.7,11.2
			c2.4,0.4,9.5,1.5,17.2,1.5c8,0,16.6-1.2,20.9-5.7c2.4-2.5,3.3-5.8,2.5-9.5c-1.2-5.9-4-9.5-6.7-12.9c-4.1-5.3-8.6-11.2-9.6-28.3
			c8,4.2,18.2,7,30.9,7c6.4,0,13.5-0.7,21.3-2.3l0.5-0.1l0.5-0.3C283.6,180.8,290.8,161.1,286.4,137.4z"/>
	</g>
	<path class="st1" d="M51.9,116.7c0,0-0.4,3.7,3.6,2.4s4.6-4.7,4-6.1c-0.6-1.4-1-8.9-5.5-7.9C49.5,106,51.9,116.7,51.9,116.7z"/>
	<path class="st1" d="M53.5,126.3c0,0-1.6-3.1,1-4.2l3.5-1.9c0,0,1.7-2,3,1.9l5.2,7.1c0,0-0.2,2.2-4.6,4.7c0,0-2.9,2-4.1,1
		L53.5,126.3z"/>
	<path class="st1" d="M71.4,132.5c0,0-13,3.4-13.4,16c0,0-14.6,9.3-6.7,13.4c7.8,4.1,0.8-10.4,20.1-2.2s32.4,3,33.5-5.2
		S106,129.1,71.4,132.5z"/>
	<path class="st1" d="M53,173.2c0,0-6.7,0.9-5.8-3.4c0,0-1.7-5.8,7.3-3.7c8.9,2,11.7-4.8,11.7-4.8s10.1-2.2,8.2,10.6
		c-1.9,12.9-11.2,5.4-11.2,5.4L47,194.7c0,0,6.3,9.5-4.9,10.1c0,0-8.6-1.9-5.4-10.4l4.5-2L53,173.2z"/>
	<path class="st1" d="M32.4,201.4c0,0,3.9,7.6,12.3,7.1c0,0,1.1,5.2-5,6.5l2.6,10.1c0,0-5.6,5-8.9,2.6c0,0-4.9-6.7-0.9-19.6
		C32.4,208.1,27,204.5,32.4,201.4z"/>
	<path class="st1" d="M30,229.8c0,0-10.1,1.5-5.9,7.2C28.4,242.7,30.2,233.2,30,229.8z"/>
	<path class="st1" d="M36,232.1c0,0-7.1,7.3-0.2,9.3S38.2,234.7,36,232.1z"/>
	<path class="st1" d="M43,229.8c0,0-4.5,9.1,2.6,8.9S45.9,231.7,43,229.8z"/>
	<path class="st1" d="M118,266.3c0,0-8.7,5.3-2.6,8.9C121.6,278.9,119.5,269.5,118,266.3z"/>
	<path class="st1" d="M124.4,266.2c0,0-3.6,9.5,3.4,8.7C134.9,273.9,127.5,267.7,124.4,266.2z"/>
	<path class="st1" d="M130,261.3c0,0-0.6,10.2,5.9,7.2S133.4,261.9,130,261.3z"/>
	<path class="st4" d="M199,224.5c0,0-8.7,5.3-2.6,8.9C202.5,237.1,200.4,227.7,199,224.5z"/>
	<path class="st4" d="M205.3,224.3c0,0-3.6,9.5,3.4,8.7C215.8,232.1,208.4,225.9,205.3,224.3z"/>
	<path class="st4" d="M210.9,219.5c0,0-0.6,10.2,5.9,7.2S214.3,220.1,210.9,219.5z"/>
	<path class="st1" d="M105.2,212.4c0,0-3.3-2.6-5.3,2.4l-3.6,8.8c0,0,5.8,16.6,5.8,28.1s6,6.2,6,6.2s3,4.2,10.2,3.2
		c0,0,8.4,2,8.2-5.2c-0.2-7.2-5-3-5-3s-6-23.3-3.2-34.8c0,0,6.5-11.4-4.7-9.7c0,0-4.5,9.7-7,9.7c0,0,9.4,25.3,1.7,36.5l-2-3
		C106.4,251.7,100.1,217.4,105.2,212.4z"/>
	<path class="st1" d="M102.3,212.4c0,0,5.4-6.9,7.9-1.5c0,0,2.6,7.9-7.9,7.2V212.4z"/>
	<path class="st4" d="M210.6,211.4c-2.1-5.9-4.7-1.2-4.7-1.2s-11-17.9-12-28.2c0,0,2-11.2-6.3-6.9c0,0-0.3,3.6-1.1,6.4
		c0.3-1.9-0.9-3.6-0.9-3.6c-2.8-3.1-5,1.3-5.6,2.8c-0.7,0.4-1.3,1.3-1.3,3.2l-0.4,8.2c0,0,9.1,12.4,12.2,21.9
		c3.1,9.5,6.4,3.7,6.4,3.7s3.5,2.8,8.9,0.1C205.6,217.8,212.8,217.3,210.6,211.4z M196.1,215l-2.4-2c0,0-9.5-18-11.5-27.6
		c2.5-0.8,3.7-1.9,4.2-3.1c-0.4,1.4-0.9,2.4-1.5,2.6C184.8,185,199.1,203.7,196.1,215z"/>
	<path class="st1" d="M105.6,140.4c0,0-1.7-4.6,2.8-5.3c0,0,4.6-2.7,4.9,2.6l1.8,10.1c0,0,2.9,5.3-3.6,5.9c0,0-4,2.1-4-2.7
		C107.4,151.1,107.2,142.6,105.6,140.4z"/>
	<path class="st1" d="M116.8,137.4c0,0-1.8-4.6,2.6-5.4c0,0,4.5-2.9,5,2.5l2.2,10.1c0,0,3.1,5.2-3.4,6c0,0-4,2.3-4.1-2.5
		C119,148.1,118.5,139.6,116.8,137.4z"/>
	<path class="st1" d="M128.6,131.3c0,0-1.8-4.6,2.6-5.4c0,0,4.5-2.9,5,2.5l2.2,10.1c0,0,3.1,5.2-3.4,6c0,0-4,2.3-4.1-2.5
		C130.8,142,130.3,133.5,128.6,131.3z"/>
	<path class="st1" d="M138.7,123.6c0,0-1.8-4.6,2.6-5.4c0,0,4.5-2.9,5,2.5l2.2,10.1c0,0,3.1,5.2-3.4,6c0,0-4,2.3-4.1-2.5
		C140.9,134.3,140.5,125.8,138.7,123.6z"/>
	<path class="st1" d="M149.4,115.1c0,0-1.8-4.6,2.6-5.4c0,0,4.5-2.9,5,2.5l2.2,10.1c0,0,3.1,5.2-3.4,6c0,0-4,2.3-4.1-2.5
		C151.6,125.8,151.2,117.3,149.4,115.1z"/>
	<path class="st1" d="M159.2,105.6c0,0-1.8-4.6,2.6-5.4c0,0,4.5-2.9,5,2.5l2.2,10.1c0,0,3.1,5.2-3.4,6c0,0-4,2.3-4.1-2.5
		C161.4,116.2,161,107.7,159.2,105.6z"/>
	<path class="st1" d="M109.4,151.9c0,0-31.6,27,0.2,55.9c0,0,5.2,2.9,3.6-4.6c0,0-27.5-20.1-0.7-46.2
		C112.4,157,116.6,150.6,109.4,151.9z"/>
	<path class="st1" d="M123.1,147.6c0,0-31.6,27,0.2,55.9c0,0,5.2,2.9,3.6-4.6c0,0-27.5-20.1-0.7-46.2
		C126.1,152.7,130.4,146.3,123.1,147.6z"/>
	<path class="st1" d="M135.2,140.9c0,0-31.3,29.3,0.9,61.4c0,0,5.3,3.3,3.5-5c0,0-27.8-22.4-1.4-50.7
		C138.2,146.6,142.4,139.6,135.2,140.9z"/>
	<path class="st4" d="M163.4,187.2c0,0,17.1-37.4-23.4-48.1c0,0-5.9-0.2-1.3,5.6c0,0,32.9,5.1,19.8,39.5
		C158.7,184.1,157.5,191.6,163.4,187.2z"/>
	<path class="st4" d="M151.7,194.4c0,0,17.1-37.4-23.4-48.1c0,0-5.9-0.2-1.3,5.6c0,0,32.9,5.1,19.8,39.5
		C146.9,191.3,145.7,198.8,151.7,194.4z"/>
	<path class="st4" d="M136.4,199.4c0,0,17.1-37.4-23.4-48.1c0,0-5.9-0.2-1.3,5.6c0,0,32.9,5.1,19.8,39.5
		C131.6,196.3,130.4,203.7,136.4,199.4z"/>
	<path class="st1" d="M270,155.3l-11.6-27.9c0,0,6.4-2.4,1.7-12.9c0,0-28-54.6-55-41.9c0,0-28.8,1.3-29.6,26.4l3.6,6.2
		c0,0,4.9-3,5.1-5.2c0.2-2.2,2.7-1.1,2.7-1.1s-0.5,6.4-11.4,12c-10.9,5.6,43.5,83.2,79.6,66.4C255,177.2,272.8,178,270,155.3z
		 M233.1,119.7c-0.7,2-1.8,3.7-3.4,5.1c-0.2,0.2-0.4,0.5-0.7,0.6c-6.5,4.8-16.9,1.8-23.2-6.7c-6.3-8.5-6.2-19.4,0.2-24.2
		c0.6-0.5,1.3-0.8,2-1.1c1.9-0.9,4-1.2,6.2-1.1c5.3,0.4,10.9,3.5,15,9C233.7,107.2,234.9,114.3,233.1,119.7z M262.7,167.8
		c-3,0-2-7.5-2-7.5c0.2-1.3,4,0,4,0S265.7,167.8,262.7,167.8z"/>
</g>
</svg>
